<svg xmlns="http://www.w3.org/2000/svg" viewBox="0 0 512 512">
  <!-- Solid background required for PWA icons — transparent icons show black on iPhone -->
  <rect width="512" height="512" rx="112" fill="#0a0618"/>
  <!-- Brand gradient circle behind the bolt -->
  <circle cx="256" cy="256" r="180" fill="url(#bg)"/>
  <!-- Bolt icon scaled and centered from favicon -->
  <g transform="translate(106, 100) scale(6.2)">
    <path fill="#a78bfa" d="M25.946 44.938c-.664.845-2.021.375-2.021-.698V33.937a2.26 2.26 0 0 0-2.262-2.262H10.287c-.92 0-1.456-1.04-.92-1.788l7.48-10.471c1.07-1.497 0-3.578-1.842-3.578H1.237c-.92 0-1.456-1.04-.92-1.788L10.013.474c.214-.297.556-.474.92-.474h28.894c.92 0 1.456 1.04.92 1.788l-7.48 10.471c-1.07 1.498 0 3.579 1.842 3.579h11.377c.943 0 1.473 1.088.89 1.83L25.947 44.94z"/>
  </g>
  <defs>
    <radialGradient id="bg" cx="50%" cy="40%" r="60%">
      <stop offset="0%" stop-color="#7c3aed" stop-opacity="0.6"/>
      <stop offset="100%" stop-color="#0a0618" stop-opacity="0"/>
    </radialGradient>
  </defs>
</svg>
